<svg width="104" height="62" viewBox="0 0 104 62" fill="none" xmlns="http://www.w3.org/2000/svg">
<path d="M2 60.1807C2.45192 56.1134 6.37026 53.3546 8.82235 50.3187C14.3145 43.5188 22.1576 38.9013 27.2629 31.8105C28.1221 30.6173 34.8283 20.5936 34.8283 25.5961C34.8283 31.4332 33.6061 38.671 34.8283 44.3745C34.8314 44.389 55.3194 21.4997 57.3893 23.5697C60.0901 26.2705 56.7139 36.2389 56.7139 40.0514C56.7139 48.8019 72.825 29.8377 75.0194 27.8928C81.5478 22.1062 85.4652 15.0827 91.4335 9.11443C93.3179 7.23005 95.6968 6.53203 96.8373 4.25098" stroke="#27996D" stroke-width="3" stroke-linecap="round"/>
<path d="M81.0312 4.25106C87.441 4.25106 93.2927 1.81934 99.877 1.81934C103.091 1.81934 101.701 11.3515 101.701 13.978" stroke="#27996D" stroke-width="3" stroke-linecap="round"/>
</svg>
