<svg width="64" height="39" viewBox="0 0 64 39" fill="none" xmlns="http://www.w3.org/2000/svg">
<path d="M2 36.7573C2.27115 34.317 4.62215 32.6617 6.09341 30.8401C9.38873 26.7602 14.0945 23.9897 17.1578 19.7352C17.6733 19.0193 21.697 13.0051 21.697 16.0066C21.697 19.5089 20.9637 23.8515 21.697 27.2736C21.6989 27.2823 33.9916 13.5487 35.2336 14.7907C36.8541 16.4112 34.8283 22.3923 34.8283 24.6798C34.8283 29.93 44.495 18.5516 45.8116 17.3846C49.7287 13.9126 52.0791 9.69856 55.6601 6.11757C56.7907 4.98694 58.2181 4.56813 58.9024 3.19949" stroke="#27996D" stroke-width="3" stroke-linecap="round"/>
<path d="M49.4187 3.19952C53.2646 3.19952 56.7756 1.74048 60.7262 1.74048C62.6548 1.74048 61.8205 7.4598 61.8205 9.03566" stroke="#27996D" stroke-width="3" stroke-linecap="round"/>
</svg>
