<svg width="32" height="33" viewBox="0 0 32 33" fill="none" xmlns="http://www.w3.org/2000/svg">
<path fill-rule="evenodd" clip-rule="evenodd" d="M8.53387 3.40977C9.82041 3.30705 11.0417 2.80102 12.0239 1.96375C13.1333 1.01891 14.5428 0.5 16 0.5C17.4572 0.5 18.8667 1.01891 19.9761 1.96375C20.9583 2.80102 22.1796 3.30705 23.4661 3.40977C24.919 3.52588 26.283 4.15571 27.3137 5.18633C28.3443 6.21696 28.9741 7.58098 29.0902 9.03387C29.1922 10.3199 29.6982 11.5419 30.5363 12.5239C31.4811 13.6333 32 15.0428 32 16.5C32 17.9572 31.4811 19.3667 30.5363 20.4761C29.699 21.4583 29.1929 22.6796 29.0902 23.9661C28.9741 25.419 28.3443 26.783 27.3137 27.8137C26.283 28.8443 24.919 29.4741 23.4661 29.5902C22.1796 29.6929 20.9583 30.199 19.9761 31.0363C18.8667 31.9811 17.4572 32.5 16 32.5C14.5428 32.5 13.1333 31.9811 12.0239 31.0363C11.0417 30.199 9.82041 29.6929 8.53387 29.5902C7.08098 29.4741 5.71696 28.8443 4.68633 27.8137C3.65571 26.783 3.02588 25.419 2.90977 23.9661C2.80705 22.6796 2.30102 21.4583 1.46375 20.4761C0.518911 19.3667 0 17.9572 0 16.5C0 15.0428 0.518911 13.6333 1.46375 12.5239C2.30102 11.5417 2.80705 10.3204 2.90977 9.03387C3.02588 7.58098 3.65571 6.21696 4.68633 5.18633C5.71696 4.15571 7.08098 3.52588 8.53387 3.40977ZM23.4141 13.914C23.7785 13.5367 23.98 13.0315 23.9755 12.5071C23.9709 11.9827 23.7606 11.4811 23.3898 11.1103C23.0189 10.7394 22.5173 10.5291 21.9929 10.5245C21.4685 10.52 20.9633 10.7216 20.5861 11.0859L14 17.672L11.4139 15.086C11.0367 14.7217 10.5315 14.5201 10.0071 14.5246C9.48269 14.5292 8.98106 14.7395 8.61023 15.1103C8.23941 15.4812 8.02907 15.9828 8.02451 16.5072C8.01995 17.0316 8.22155 17.5368 8.58587 17.914L12.5859 21.9141C12.961 22.289 13.4696 22.4997 14 22.4997C14.5303 22.4997 15.0389 22.289 15.414 21.9141L23.4141 13.914Z" fill="#F9D14B"/>
</svg>
