<svg width="97" height="87" viewBox="0 0 97 87" fill="none" xmlns="http://www.w3.org/2000/svg">
<rect y="35.3553" width="50" height="50" rx="8" transform="rotate(-45 0 35.3553)" fill="#EAF8F3"/>
<g filter="url(#filter0_d_7_583)">
<circle cx="55" cy="41" r="30" fill="white"/>
</g>
<path d="M54.6766 31.0674C54.7784 31.0229 54.8883 31 54.9995 31C55.1106 31 55.2205 31.0229 55.3224 31.0674C59.3027 32.8072 63.0995 34.94 66.6562 37.434C66.7816 37.5219 66.8794 37.6436 66.9381 37.7849C66.9969 37.9263 67.0143 38.0815 66.9882 38.2323C66.9621 38.3832 66.8937 38.5235 66.7909 38.637C66.6881 38.7504 66.5552 38.8323 66.4076 38.873C62.7151 39.8929 59.1422 41.3044 55.7497 43.0837L55.7464 43.0858L55.3805 43.2796C55.2634 43.3421 55.1327 43.3749 55 43.3749C54.8673 43.3749 54.7366 43.3421 54.6195 43.2796C53.165 42.5023 51.6756 41.7922 50.1559 41.1516V40.9105C50.1559 40.7695 50.228 40.6436 50.3411 40.5758C51.9657 39.5913 53.637 38.6861 55.3493 37.8634C55.5422 37.7706 55.6905 37.605 55.7613 37.4029C55.8322 37.2009 55.8198 36.979 55.7271 36.786C55.6343 36.593 55.4687 36.4448 55.2666 36.374C55.0645 36.3031 54.8426 36.3154 54.6497 36.4082C52.8907 37.2534 51.1737 38.1834 49.5047 39.1948C49.2673 39.3389 49.0625 39.5308 48.9033 39.7584C48.7441 39.9859 48.6341 40.2442 48.5802 40.5166C46.9454 39.8876 45.2808 39.3391 43.5924 38.873C43.4448 38.8323 43.3119 38.7504 43.2091 38.637C43.1063 38.5235 43.0379 38.3832 43.0118 38.2323C42.9857 38.0815 43.0031 37.9263 43.0619 37.7849C43.1207 37.6436 43.2184 37.5219 43.3438 37.434C46.9001 34.94 50.6966 32.8073 54.6766 31.0674Z" fill="#2AB87E"/>
<path d="M56.1404 44.7023C58.7842 43.2899 61.5448 42.108 64.3916 41.1698C64.5359 42.6917 64.6284 44.2298 64.6661 45.7819C64.67 45.9443 64.6249 46.1041 64.5366 46.2405C64.4482 46.3768 64.3208 46.4833 64.171 46.5461C61.1199 47.8204 58.1985 49.3855 55.4472 51.2196C55.3146 51.308 55.1588 51.3551 54.9995 51.3551C54.8401 51.3551 54.6843 51.308 54.5517 51.2196C51.8008 49.3855 48.8798 47.8205 45.829 46.5461C45.679 46.4835 45.5513 46.3771 45.4628 46.2407C45.3743 46.1043 45.329 45.9444 45.3328 45.7819C45.3705 44.2298 45.4631 42.6928 45.6073 41.1687C46.5958 41.4945 47.5742 41.8499 48.5414 42.2343V43.6012C48.3089 43.7352 48.1134 43.9251 47.9726 44.1536C47.8319 44.3822 47.7504 44.6422 47.7354 44.9102C47.7205 45.1782 47.7725 45.4456 47.887 45.6884C48.0014 45.9312 48.1745 46.1417 48.3907 46.3007C48.2939 46.7097 48.1518 47.1112 47.9634 47.4954C48.4499 47.7247 48.9332 47.9626 49.4122 48.2069C49.6822 47.6574 49.8815 47.0758 50.0052 46.4761C50.2774 46.3551 50.5108 46.1612 50.6796 45.9157C50.8484 45.6703 50.946 45.3829 50.9616 45.0854C50.9772 44.7879 50.9102 44.492 50.768 44.2302C50.6258 43.9684 50.414 43.7511 50.1559 43.6023V42.9081C51.4132 43.4577 52.6484 44.0566 53.8585 44.7034C54.2096 44.8909 54.6015 44.989 54.9995 44.989C55.3975 44.989 55.7893 44.8909 56.1404 44.7034V44.7023Z" fill="#2AB87E"/>
<path d="M46.886 48.9959C47.3381 48.5449 47.6965 48.038 47.9624 47.4955C48.4499 47.7247 48.9332 47.9626 49.4122 48.2069C49.06 48.9223 48.5923 49.5746 48.028 50.1379C47.9541 50.2172 47.865 50.2808 47.766 50.3249C47.6669 50.3691 47.56 50.3928 47.4517 50.3947C47.3433 50.3966 47.2356 50.3767 47.1351 50.3361C47.0346 50.2955 46.9433 50.235 46.8666 50.1584C46.7899 50.0817 46.7295 49.9904 46.6889 49.8899C46.6483 49.7894 46.6284 49.6817 46.6303 49.5733C46.6322 49.4649 46.6559 49.358 46.7 49.259C46.7442 49.16 46.8078 49.0709 46.8871 48.997L46.886 48.9959Z" fill="#2AB87E"/>
<defs>
<filter id="filter0_d_7_583" x="13" y="3" width="84" height="84" filterUnits="userSpaceOnUse" color-interpolation-filters="sRGB">
<feFlood flood-opacity="0" result="BackgroundImageFix"/>
<feColorMatrix in="SourceAlpha" type="matrix" values="0 0 0 0 0 0 0 0 0 0 0 0 0 0 0 0 0 0 127 0" result="hardAlpha"/>
<feOffset dy="4"/>
<feGaussianBlur stdDeviation="6"/>
<feComposite in2="hardAlpha" operator="out"/>
<feColorMatrix type="matrix" values="0 0 0 0 0.941176 0 0 0 0 0.941176 0 0 0 0 0.94902 0 0 0 1 0"/>
<feBlend mode="normal" in2="BackgroundImageFix" result="effect1_dropShadow_7_583"/>
<feBlend mode="normal" in="SourceGraphic" in2="effect1_dropShadow_7_583" result="shape"/>
</filter>
</defs>
</svg>
