<svg width="40" height="40" viewBox="0 0 40 40" fill="none" xmlns="http://www.w3.org/2000/svg">
<circle cx="20" cy="20" r="20" fill="white"/>
<path d="M31.953 12.3234C31.0545 12.719 30.1027 12.9801 29.1281 13.0984C30.1542 12.4817 30.9225 11.5145 31.291 10.3755C30.3401 10.9305 29.2861 11.3344 28.1642 11.5594C27.424 10.7679 26.4431 10.2429 25.3739 10.066C24.3047 9.88909 23.2071 10.0702 22.2513 10.5811C21.2956 11.092 20.5353 11.9042 20.0886 12.8915C19.6418 13.8788 19.5335 14.9861 19.7805 16.0413C15.6907 15.8483 12.0658 13.8843 9.63993 10.9155C9.19874 11.6652 8.96862 12.5204 8.97396 13.3904C8.97396 15.1003 9.84392 16.6032 11.1619 17.4862C10.3808 17.4613 9.6169 17.2501 8.93396 16.8702V16.9312C8.93352 18.0676 9.32621 19.1691 10.0454 20.0488C10.7646 20.9286 11.7661 21.5325 12.8798 21.758C12.1581 21.9514 11.4023 21.9804 10.6679 21.843C10.9841 22.8209 11.5977 23.6757 12.423 24.2882C13.2483 24.9007 14.2441 25.2404 15.2717 25.2599C13.5313 26.6257 11.3823 27.367 9.16995 27.3648C8.77997 27.3648 8.39098 27.3418 8 27.2978C10.2556 28.7421 12.8783 29.5087 15.5567 29.5067C24.6103 29.5067 29.5551 22.011 29.5551 15.5213C29.5551 15.3123 29.5551 15.1013 29.5401 14.8913C30.506 14.1962 31.3392 13.3332 32 12.3434L31.953 12.3234Z" fill="#252B3B"/>
</svg>
