<svg width="419" height="395" viewBox="0 0 419 395" fill="none" xmlns="http://www.w3.org/2000/svg">
<path d="M304.06 223.806V332.748L322.282 362.445L323.669 364.704H395.571L397.024 223.806H304.06Z" fill="#E6E6E6"/>
<path opacity="0.1" d="M304.06 223.806V332.748L322.282 362.445L323.401 223.806H304.06Z" fill="black"/>
<path d="M130.478 220.9V329.843L112.256 359.541L110.869 361.799H38.9669L37.5141 220.9H130.478Z" fill="#E6E6E6"/>
<path opacity="0.1" d="M130.478 220.9V329.843L112.256 359.541L111.137 220.9H130.478Z" fill="black"/>
<path d="M418.812 218.722V225.258H28.0724V215.816L64.3863 196.933H386.856L418.812 218.722Z" fill="#E6E6E6"/>
<path opacity="0.1" d="M418.812 218.722V225.258H28.0724V215.816L418.812 218.722Z" fill="black"/>
<path d="M83.9964 251.404H66.5653L59.3025 246.32H91.9853L83.9964 251.404Z" fill="#3F3D56"/>
<path d="M83.9964 272.467H66.5653L59.3025 267.383H91.9853L83.9964 272.467Z" fill="#3F3D56"/>
<path d="M83.9964 302.244H66.5653L59.3025 297.16H91.9853L83.9964 302.244Z" fill="#3F3D56"/>
<path d="M83.9964 332.022H66.5653L59.3025 326.938H91.9853L83.9964 332.022Z" fill="#3F3D56"/>
<path d="M350.541 254.309H367.972L375.235 249.225H342.552L350.541 254.309Z" fill="#3F3D56"/>
<path d="M350.541 275.371H367.972L375.235 270.288H342.552L350.541 275.371Z" fill="#3F3D56"/>
<path d="M350.541 305.149H367.972L375.235 300.065H342.552L350.541 305.149Z" fill="#3F3D56"/>
<path d="M350.541 334.927H367.972L375.235 329.843H342.552L350.541 334.927Z" fill="#3F3D56"/>
<path d="M362.412 70.9524H215.669C214.94 70.9523 214.218 71.0958 213.545 71.3746C212.871 71.6535 212.259 72.0623 211.744 72.5776C211.229 73.093 210.82 73.7048 210.541 74.3782C210.262 75.0515 210.119 75.7732 210.119 76.502V175.352C210.119 176.081 210.262 176.802 210.541 177.476C210.82 178.149 211.229 178.761 211.744 179.276C212.259 179.792 212.871 180.2 213.545 180.479C214.218 180.758 214.94 180.902 215.669 180.902H271.373L269.286 194.226C269.286 194.226 257.36 200.562 265.746 200.748C274.132 200.935 313.639 200.748 313.639 200.748C313.639 200.748 321.279 200.748 309.166 194.04L307.203 180.902H362.412C363.14 180.902 363.862 180.758 364.535 180.479C365.209 180.2 365.821 179.792 366.336 179.276C366.851 178.761 367.26 178.149 367.539 177.476C367.818 176.802 367.961 176.081 367.961 175.352V76.502C367.961 75.7732 367.818 75.0515 367.539 74.3782C367.26 73.7048 366.851 73.093 366.336 72.5776C365.821 72.0623 365.209 71.6535 364.535 71.3746C363.862 71.0958 363.14 70.9523 362.412 70.9524Z" fill="#3F3D56"/>
<path d="M362.65 76.8228H215.43V159.191H362.65V76.8228Z" fill="#F2F2F2"/>
<path d="M289.04 75.1453C289.555 75.1453 289.972 74.7281 289.972 74.2135C289.972 73.6989 289.555 73.2817 289.04 73.2817C288.525 73.2817 288.108 73.6989 288.108 74.2135C288.108 74.7281 288.525 75.1453 289.04 75.1453Z" fill="#F2F2F2"/>
<path d="M289.04 176.895C290.996 176.895 292.581 175.31 292.581 173.354C292.581 171.399 290.996 169.813 289.04 169.813C287.085 169.813 285.499 171.399 285.499 173.354C285.499 175.31 287.085 176.895 289.04 176.895Z" fill="#F2F2F2"/>
<path d="M283.523 210.811V212.675H183.264V211.184L183.402 210.811L185.873 204.103H281.473L283.523 210.811Z" fill="#3F3D56"/>
<path d="M322.105 208.987C321.923 209.768 321.233 210.592 319.675 211.37C314.085 214.166 302.717 210.625 302.717 210.625C302.717 210.625 293.958 209.134 293.958 205.221C294.204 205.052 294.461 204.9 294.726 204.764C297.076 203.521 304.87 200.452 318.688 204.894C319.706 205.214 320.616 205.81 321.315 206.615C321.625 206.92 321.858 207.294 321.995 207.706C322.133 208.118 322.17 208.557 322.105 208.987Z" fill="#3F3D56"/>
<path opacity="0.1" d="M322.105 208.987C315.262 211.609 309.163 211.805 302.903 207.457C300.536 205.707 297.67 204.763 294.726 204.764C297.077 203.521 304.87 200.452 318.688 204.894C319.706 205.214 320.616 205.81 321.315 206.615C321.625 206.92 321.858 207.294 321.995 207.706C322.133 208.118 322.17 208.557 322.105 208.987Z" fill="black"/>
<path d="M313.526 207.457C314.863 207.457 315.948 207.123 315.948 206.712C315.948 206.3 314.863 205.966 313.526 205.966C312.188 205.966 311.103 206.3 311.103 206.712C311.103 207.123 312.188 207.457 313.526 207.457Z" fill="#F2F2F2"/>
<path opacity="0.1" d="M283.523 210.811V212.675H183.264V211.184L183.402 210.811H283.523Z" fill="black"/>
<path d="M55.7453 0.0168967C54.7278 -0.0666457 53.7089 0.160963 52.8236 0.669564C51.9544 1.26481 51.4066 2.30763 50.8474 3.27804C48.7093 7.03258 45.8148 10.3022 42.3472 12.8797C39.8215 14.73 36.6104 17.0371 37.0425 20.4485C37.2705 21.5751 37.6867 22.6553 38.2736 23.6435C40.6036 28.347 46.9619 31.9818 46.3365 37.3489C48.6514 33.4734 45.555 31.5571 47.8699 27.6817C48.9724 25.8361 50.8875 23.7528 52.5519 24.9118C53.1092 25.2999 53.4752 25.996 54.0555 26.3365C55.4401 27.149 56.9131 25.5956 58.1388 24.4954C62.3651 20.7014 68.3754 21.6953 73.6348 22.8775C76.1177 23.4355 78.8448 24.1677 80.3126 26.5408C82.2424 29.6608 78.4791 33.0306 77.5283 36.5581C77.4507 36.8587 77.447 37.1736 77.5176 37.4759C77.5882 37.7782 77.731 38.0589 77.9337 38.294C78.1364 38.5291 78.3931 38.7116 78.6817 38.8259C78.9704 38.9402 79.2824 38.9828 79.5911 38.9503C81.1692 38.7946 83.0386 38.667 83.132 37.9745C85.1175 38.0452 87.5503 37.8203 88.401 35.7529C88.661 34.9349 88.7984 34.0829 88.8088 33.2247C89.121 29.7519 90.595 26.5837 91.5714 23.2784C92.5478 19.9731 92.9724 16.0995 91.3246 13.169C90.7365 12.194 90.0092 11.31 89.1657 10.5452C79.8147 1.49582 67.5202 0.00346408 55.7453 0.0168967Z" fill="#2F2E41"/>
<path d="M48.3701 44.1278C48.3701 44.1278 50.4038 61.0752 42.947 62.431C35.4902 63.7868 49.7259 86.8351 49.7259 86.8351L83.6206 90.9025L75.4859 63.7868C75.4859 63.7868 70.0627 61.7531 73.4522 48.1952C76.8417 34.6373 48.3701 44.1278 48.3701 44.1278Z" fill="#FFB8B8"/>
<path d="M27.6943 335.283L30.4062 372.567H44.6414L40.5746 335.283H27.6943Z" fill="#FFB8B8"/>
<path d="M132.09 264.782L134.123 295.965L149.715 289.186L143.614 263.427L132.09 264.782Z" fill="#FFB8B8"/>
<path d="M17.5259 192.925C17.5259 192.925 18.2038 232.243 22.2712 245.123C26.3386 258.003 25.6607 258.681 24.9828 260.715C24.3049 262.749 23.627 261.393 23.627 264.782C23.627 268.172 22.2712 321.725 23.627 326.47C24.9828 331.216 19.5596 339.35 23.627 340.028C27.6944 340.706 46.6754 340.028 47.3533 335.961C48.0312 331.894 41.9301 330.538 44.6417 327.826C47.3533 325.115 51.4206 269.527 51.4206 269.527L60.9111 230.888L78.5364 210.551H115.82L127.345 255.292C127.345 255.292 122.599 268.172 125.989 268.172C129.378 268.172 149.715 272.239 149.715 257.325C149.715 242.412 142.936 198.349 141.58 196.993C140.225 195.637 142.258 190.892 140.225 188.858C138.191 186.824 114.465 172.589 105.652 169.877C96.8395 167.166 84.4769 163.938 84.4769 163.938L17.5259 192.925Z" fill="#2F2E41"/>
<path d="M149.715 283.763C149.715 283.763 139.547 280.374 134.802 290.542C130.056 300.71 132.09 303.422 132.09 303.422C132.09 303.422 147.682 308.845 150.393 306.134C151.573 304.954 155.319 304.544 159.175 304.457C165.048 304.326 166.611 296.017 161.064 294.082C160.898 294.024 160.731 293.974 160.561 293.931C155.138 292.576 149.715 283.763 149.715 283.763Z" fill="#2F2E41"/>
<path d="M63.6227 55.313C74.8544 55.313 83.9595 46.2079 83.9595 34.9762C83.9595 23.7445 74.8544 14.6394 63.6227 14.6394C52.391 14.6394 43.2859 23.7445 43.2859 34.9762C43.2859 46.2079 52.391 55.313 63.6227 55.313Z" fill="#FFB8B8"/>
<path d="M37.1849 70.9047C37.1849 70.9047 70.4017 77.6836 78.5364 66.8373C86.6711 55.991 90.0606 97.3425 90.0606 97.3425L94.128 140.728L88.0269 164.454C88.0269 164.454 56.1659 190.214 45.9975 192.248C35.8291 194.281 20.2375 195.637 20.2375 195.637C20.2375 195.637 24.9828 120.391 24.9828 119.035C24.9828 117.679 37.1849 70.9047 37.1849 70.9047Z" fill="#DE7673"/>
<path d="M47.2869 58.1909C47.2869 58.1909 39.8965 53.9573 37.8628 58.0246C35.8291 62.092 16.8481 72.2604 14.8144 72.2604C12.7807 72.2604 18.8818 128.526 16.1702 135.304C13.4586 142.083 0.578672 191.57 8.0355 195.637C15.4923 199.704 10.0692 191.57 17.526 201.738C24.9828 211.906 61.5891 211.906 63.6228 207.839C65.6564 203.772 47.3533 173.266 50.7428 144.795C54.1323 116.323 59.5554 77.0056 54.8102 71.5825C50.0649 66.1593 47.2869 58.1909 47.2869 58.1909Z" fill="#2F2E41"/>
<path d="M71.7574 62.7698L72.7017 59.5203C72.7017 59.5203 100.907 68.8708 102.263 74.9719C103.618 81.0729 102.941 123.78 98.1953 127.17C93.45 130.559 86.6711 135.982 91.4164 144.117C96.1616 152.252 101.585 161.064 105.652 161.742C109.72 162.42 117.176 167.165 115.143 171.911C113.109 176.656 88.7048 167.843 88.7048 167.843C88.7048 167.843 72.4353 155.641 73.1132 136.66C73.7911 117.679 71.7574 62.7698 71.7574 62.7698Z" fill="#2F2E41"/>
<path d="M95.4837 142.761L79.2143 173.266C79.2143 173.266 55.488 197.671 69.0459 200.382C82.6038 203.094 90.0606 178.012 90.0606 178.012L107.686 152.93L95.4837 142.761Z" fill="#FFB8B8"/>
<path d="M56.736 5.33806C55.9162 5.27732 55.0952 5.43657 54.3576 5.79936C53.6907 6.28641 53.1411 6.9163 52.7489 7.64301C50.9407 10.3628 48.5838 12.6744 45.8293 14.4294C43.7733 15.7372 41.1594 17.3678 41.5111 19.779C41.7021 20.5874 42.0419 21.3532 42.5133 22.0372C44.4166 25.3952 45.1743 29.2817 44.6717 33.1088L50.3251 24.8914C51.2226 23.5869 52.7815 22.1145 54.1365 22.9337C54.5901 23.2079 54.888 23.6999 55.3604 23.9406C56.4875 24.5148 57.6866 23.417 58.6844 22.6393C62.1248 19.9577 67.0175 20.6603 71.2988 21.4958C73.32 21.8902 75.54 22.4077 76.7348 24.085C78.7204 26.8723 76.6471 30.8997 77.8059 34.1197C78.1303 33.8926 78.4058 33.6026 78.616 33.2671C78.8263 32.9315 78.967 32.5572 79.0299 32.1662C80.6462 32.2162 82.6266 32.0573 83.3191 30.596C83.5297 30.0234 83.6419 29.4192 83.6511 28.8091C83.9052 26.3545 85.1051 24.1153 85.8999 21.7791C86.6948 19.443 87.0404 16.7051 85.699 14.6339C85.2083 13.9321 84.616 13.3071 83.9416 12.7793C76.3295 6.38334 66.3212 5.32857 56.736 5.33806Z" fill="#2F2E41"/>
<path d="M95.4837 72.2603L101.8 73.9367C101.8 73.9367 116.498 111.578 113.109 137.338C109.719 163.098 107.686 157.675 107.686 157.675C107.686 157.675 102.263 145.473 90.0605 148.184L95.4837 72.2603Z" fill="#2F2E41"/>
<path d="M28.6336 367.64C26.9989 369.861 27.3266 373.037 25.8786 375.384C24.6234 377.419 22.2579 378.486 20.6879 380.289C20.1869 380.888 19.7403 381.53 19.3534 382.208C17.897 384.648 16.7132 387.774 18.1475 390.227C19.3014 392.2 21.7267 392.971 23.951 393.496C26.7624 394.161 29.6835 394.692 32.5274 394.185C35.3712 393.677 38.1506 391.936 39.1646 389.231C39.3639 388.551 39.6008 387.882 39.8742 387.228C41.4156 384.194 46.2505 384.161 47.828 381.145C48.9319 379.034 47.9171 376.483 46.9027 374.328L43.8045 367.746C42.7763 365.562 38.6083 366.818 36.4355 366.294C33.6016 365.612 30.6723 364.86 28.6336 367.64Z" fill="#2F2E41"/>
<path d="M6.00177 156.319L34.4733 200.382C34.4733 200.382 52.0985 222.753 57.5217 212.584C62.9448 202.416 38.5407 185.469 38.5407 185.469L20.2375 151.574L6.00177 156.319Z" fill="#FFB8B8"/>
<path d="M20.2375 73.616L14.8144 72.2603C14.8144 72.2603 3.9681 75.6497 1.25653 89.8855C-1.45504 104.121 0.578634 161.064 3.9681 161.742C7.35757 162.42 20.7086 151.827 22.8457 154.073C24.9828 156.319 18.2039 144.795 20.2375 138.694C22.2712 132.593 20.2375 73.616 20.2375 73.616Z" fill="#2F2E41"/>
<path d="M275.106 103.875H257.585V108.093H275.106V103.875Z" fill="#DE7673"/>
<path d="M335.78 103.875H329.615V108.093H335.78V103.875Z" fill="#DE7673"/>
<path d="M348.109 103.875H341.945V108.093H348.109V103.875Z" fill="#DE7673"/>
<path d="M323.126 103.875H281.271V108.093H323.126V103.875Z" fill="#DE7673"/>
<path d="M253.042 131.13H235.522V135.348H253.042V131.13Z" fill="#DE7673"/>
<path d="M313.717 131.13H307.552V135.348H313.717V131.13Z" fill="#DE7673"/>
<path d="M326.046 131.13H319.881V135.348H326.046V131.13Z" fill="#DE7673"/>
<path d="M301.063 131.13H259.207V135.348H301.063V131.13Z" fill="#DE7673"/>
<path d="M325.397 113.285H307.876V117.503H325.397V113.285Z" fill="#DE7673"/>
<path d="M349.083 113.285H331.562V117.503H349.083V113.285Z" fill="#DE7673"/>
<path d="M241.686 113.285H235.522V117.503H241.686V113.285Z" fill="#DE7673"/>
<path d="M254.016 113.285H247.851V117.503H254.016V113.285Z" fill="#DE7673"/>
<path d="M302.036 113.285H260.181V117.503H302.036V113.285Z" fill="#DE7673"/>
<path d="M289.058 122.37H271.537V126.588H289.058V122.37Z" fill="#DE7673"/>
<path d="M265.372 122.37H247.851V126.588H265.372V122.37Z" fill="#DE7673"/>
<path d="M241.686 122.37H235.522V126.588H241.686V122.37Z" fill="#DE7673"/>
<path d="M349.083 122.37H342.918V126.588H349.083V122.37Z" fill="#DE7673"/>
<path d="M336.753 122.37H294.898V126.588H336.753V122.37Z" fill="#DE7673"/>
</svg>
