<svg width="40" height="40" viewBox="0 0 40 40" fill="none" xmlns="http://www.w3.org/2000/svg">
<circle cx="20" cy="20" r="20" fill="#F0F0F2"/>
<path d="M32 12.5002V27.5002C32 28.3502 31.35 29.0002 30.5 29.0002H29V15.3872L20 21.8502L11 15.3872V29.0002H9.5C8.649 29.0002 8 28.3502 8 27.5002V12.5002C8 12.0752 8.162 11.7002 8.431 11.4322C8.57138 11.2925 8.73828 11.1824 8.92186 11.1082C9.10545 11.034 9.30201 10.9973 9.5 11.0002H10L20 18.2502L30 11.0002H30.5C30.925 11.0002 31.3 11.1622 31.569 11.4322C31.839 11.7002 32 12.0752 32 12.5002Z" fill="#252B3B"/>
</svg>
