<svg width="197" height="185" viewBox="0 0 197 185" fill="none" xmlns="http://www.w3.org/2000/svg">
<path d="M9.20346 86.5411L81.1709 35.8421C83.6129 34.1259 86.6359 33.4484 89.5768 33.9584C92.5177 34.4683 95.1362 36.1239 96.8579 38.562L124.594 77.9339C126.31 80.3759 126.988 83.3989 126.478 86.3398C125.968 89.2807 124.313 91.8992 121.874 93.6209L49.907 144.32C47.465 146.036 44.4419 146.714 41.501 146.204C38.5601 145.694 35.9416 144.038 34.2199 141.6L6.48359 102.228C4.76737 99.7861 4.0899 96.7631 4.5998 93.8222C5.1097 90.8813 6.76533 88.2628 9.20346 86.5411Z" fill="#F2F2F2"/>
<path d="M11.0699 89.1906L83.0374 38.4916C84.7764 37.2694 86.9292 36.7869 89.0234 37.1501C91.1177 37.5132 92.9824 38.6922 94.2085 40.4284L121.945 79.8003C123.167 81.5393 123.649 83.6921 123.286 85.7863C122.923 87.8806 121.744 89.7453 120.008 90.9714L48.0404 141.67C46.3014 142.893 44.1486 143.375 42.0544 143.012C39.9601 142.649 38.0954 141.47 36.8694 139.733L9.13305 100.362C7.91089 98.6226 7.42844 96.4699 7.79154 94.3756C8.15464 92.2814 9.33363 90.4166 11.0699 89.1906Z" fill="white"/>
<path d="M60.5397 157.922C60.3221 158.074 60.0765 158.182 59.8171 158.239C59.4335 158.33 59.0314 158.302 58.6636 158.16C58.2958 158.019 57.9794 157.769 57.7558 157.444L48.1675 143.834L65.8828 130.44L61.3404 156.639C61.2985 156.895 61.2061 157.14 61.0687 157.361C60.9312 157.581 60.7514 157.772 60.5397 157.922Z" fill="#F2F2F2"/>
<path d="M80.9229 54.6345L26.8071 92.7576C24.6404 94.2839 24.1213 97.2777 25.6477 99.4443L25.6477 99.4443C27.174 101.611 30.1678 102.13 32.3344 100.604L86.4503 62.4806C88.617 60.9543 89.136 57.9605 87.6097 55.7939C86.0834 53.6272 83.0896 53.1081 80.9229 54.6345Z" fill="#F2F2F2"/>
<path d="M89.8332 67.0964L35.7173 105.219C33.5507 106.746 33.0316 109.74 34.5579 111.906L34.5579 111.906C36.0843 114.073 39.078 114.592 41.2447 113.066L95.3606 74.9425C97.5272 73.4162 98.0463 70.4224 96.5199 68.2558C94.9936 66.0891 91.9998 65.5701 89.8332 67.0964Z" fill="#F2F2F2"/>
<path d="M98.7434 79.5583L44.6275 117.681C42.4609 119.208 41.9418 122.201 43.4681 124.368L43.4681 124.368C44.9945 126.535 47.9882 127.054 50.1549 125.528L104.271 87.4044C106.437 85.8781 106.956 82.8843 105.43 80.7177C103.904 78.551 100.91 78.032 98.7434 79.5583Z" fill="#F2F2F2"/>
<path d="M136.991 26.5638L65.024 77.2628C62.5859 78.9845 60.9303 81.603 60.4204 84.5439C59.9105 87.4848 60.588 90.5078 62.3042 92.9498L90.0405 132.322C91.7622 134.76 94.3807 136.415 97.3216 136.925C100.262 137.435 103.286 136.758 105.728 135.042L177.695 84.3426C180.133 82.6209 181.789 80.0024 182.299 77.0615C182.809 74.1206 182.131 71.0976 180.415 68.6556L152.679 29.2837C150.957 26.8456 148.338 25.1899 145.397 24.68C142.457 24.1701 139.433 24.8476 136.991 26.5638Z" fill="#ED662C"/>
<path d="M138.858 29.2132L66.8905 79.9122C65.1543 81.1382 63.9753 83.003 63.6121 85.0972C63.249 87.1915 63.7315 89.3443 64.9536 91.0833L92.6899 130.455C93.916 132.191 95.7807 133.37 97.875 133.734C99.9693 134.097 102.122 133.614 103.861 132.392L175.829 81.693C177.565 80.4669 178.744 78.6022 179.107 76.508C179.47 74.4137 178.988 72.2609 177.765 70.522L150.029 31.1501C148.803 29.4139 146.938 28.2349 144.844 27.8717C142.75 27.5086 140.597 27.991 138.858 29.2132Z" fill="white"/>
<path d="M181.812 101.816L155.614 97.2732L174.189 85.1008L183.778 98.7114C184.008 99.0312 184.136 99.4132 184.146 99.8073C184.156 100.201 184.046 100.589 183.832 100.92C183.691 101.145 183.506 101.34 183.29 101.493C183.077 101.642 182.837 101.747 182.583 101.803C182.33 101.858 182.068 101.862 181.812 101.816Z" fill="#ED662C"/>
<path d="M108.989 96.9571C111.735 95.0225 112.393 91.2281 110.459 88.482C108.524 85.7359 104.73 85.078 101.984 87.0126C99.2376 88.9471 98.5797 92.7415 100.514 95.4876C102.449 98.2337 106.243 98.8916 108.989 96.9571Z" fill="#F0F0F2"/>
<path d="M124.862 85.775C127.608 83.8404 128.266 80.046 126.332 77.2999C124.397 74.5538 120.603 73.8959 117.857 75.8304C115.111 77.765 114.453 81.5594 116.387 84.3055C118.322 87.0516 122.116 87.7095 124.862 85.775Z" fill="#F0F0F2"/>
<path d="M140.735 74.5928C143.481 72.6583 144.139 68.8639 142.205 66.1178C140.27 63.3717 136.476 62.7138 133.73 64.6483C130.984 66.5829 130.326 70.3773 132.26 73.1234C134.195 75.8695 137.989 76.5274 140.735 74.5928Z" fill="#F0F0F2"/>
</svg>
