<svg width="40" height="40" viewBox="0 0 40 40" fill="none" xmlns="http://www.w3.org/2000/svg">
<circle cx="20" cy="20" r="20" fill="#F0F0F2"/>
<path d="M31.999 20.0005C31.999 13.3722 26.6268 8 19.9995 8C13.3722 8 8 13.3722 8 20.0005C8 25.9887 12.3882 30.953 18.1244 31.853V23.4686H15.0783V19.9995H18.1244V17.3564C18.1244 14.3483 19.9165 12.6872 22.6566 12.6872C23.9697 12.6872 25.3427 12.9212 25.3427 12.9212V15.8743H23.8307C22.3406 15.8743 21.8756 16.7994 21.8756 17.7484V20.0005H25.2037L24.6717 23.4696H21.8756V31.854C27.6118 30.954 32 25.9897 32 20.0005H31.999Z" fill="#252B3B"/>
</svg>
