<svg width="40" height="40" viewBox="0 0 40 40" fill="none" xmlns="http://www.w3.org/2000/svg">
<circle cx="20" cy="20" r="20" fill="#F0F0F2"/>
<path d="M25.4981 22.4506C25.1997 22.3009 23.7317 21.5795 23.4584 21.479C23.1841 21.3796 22.9851 21.3303 22.7852 21.6298C22.5873 21.9282 22.0145 22.6004 21.8407 22.7993C21.6669 22.9993 21.4921 23.0234 21.1936 22.8747C20.8952 22.7239 19.9327 22.4095 18.7922 21.3926C17.905 20.6009 17.3052 19.6232 17.1314 19.3238C16.9575 19.0254 17.1133 18.8636 17.262 18.7149C17.3966 18.5813 17.5614 18.3663 17.7101 18.1924C17.8598 18.0176 17.909 17.893 18.0095 17.6931C18.109 17.4941 18.0598 17.3203 17.9844 17.1706C17.909 17.0209 17.3122 15.5509 17.064 14.9531C16.8209 14.3713 16.5747 14.4507 16.3918 14.4406C16.201 14.433 16.0101 14.4297 15.8191 14.4306C15.6202 14.4306 15.2966 14.5049 15.0233 14.8043C14.75 15.1028 13.9784 15.8252 13.9784 17.2952C13.9784 18.7641 15.0485 20.1839 15.1972 20.3838C15.3469 20.5828 17.3032 23.5991 20.2984 24.8922C21.0108 25.1997 21.5664 25.3836 22.0005 25.5202C22.7159 25.7483 23.367 25.7162 23.8804 25.6388C24.4541 25.5534 25.6468 24.9164 25.896 24.219C26.1451 23.5217 26.1451 22.9239 26.0698 22.7993C25.9954 22.6747 25.7975 22.6004 25.4981 22.4506ZM20.0502 29.889H20.0462C18.2675 29.8891 16.5215 29.4109 14.9912 28.5044L14.6285 28.2894L10.8696 29.2761L11.8724 25.6107L11.6363 25.2349C10.642 23.6516 10.116 21.8193 10.1191 19.9498C10.1201 14.4738 14.5762 10.0186 20.0542 10.0186C22.7068 10.0186 25.2007 11.0535 27.0756 12.9304C28.0006 13.8514 28.7339 14.9467 29.2328 16.153C29.7318 17.3592 29.9865 18.6525 29.9824 19.9578C29.9794 25.4338 25.5242 29.889 20.0502 29.889ZM28.5033 11.5047C27.3963 10.3903 26.0791 9.50673 24.628 8.90514C23.177 8.30355 21.621 7.9959 20.0502 8.00004C13.4639 8.00004 8.10349 13.3605 8.10048 19.9488C8.10048 22.0548 8.65009 24.1105 9.69605 25.9221L8 32.1145L14.3351 30.4526C16.087 31.4071 18.0502 31.9073 20.0452 31.9075H20.0502C26.6355 31.9075 31.9969 26.5471 31.9999 19.9578C32.0048 18.3876 31.6983 16.8321 31.0981 15.3811C30.4979 13.9302 29.616 12.6126 28.5033 11.5047Z" fill="#252B3B"/>
</svg>
