<svg width="648" height="425" viewBox="0 0 648 425" fill="none" xmlns="http://www.w3.org/2000/svg">
<path d="M597.875 205.222H72.4188C65.3756 205.222 59.6455 199.483 59.6455 192.429V12.7919C59.6455 5.73842 65.3756 0 72.4188 0H597.875C604.918 0 610.649 5.73842 610.649 12.7919V192.429C610.649 199.483 604.918 205.222 597.875 205.222ZM72.4188 1.52508C66.2154 1.52508 61.1684 6.57953 61.1684 12.7919V192.429C61.1684 198.642 66.2154 203.697 72.4188 203.697H597.875C604.079 203.697 609.126 198.642 609.126 192.429V12.7919C609.126 6.57953 604.079 1.52508 597.875 1.52508H72.4188Z" fill="#3F3D56"/>
<path d="M648 419.823H0V421.106H648V419.823Z" fill="#E6E6E6"/>
<path d="M648 354.244H0V355.527H648V354.244Z" fill="#E6E6E6"/>
<path d="M295.312 211.828C295.777 217.684 299.172 222.191 302.893 221.894C306.614 221.597 309.253 216.609 308.787 210.751C308.633 208.408 307.92 206.136 306.71 204.126L304.425 179.337L292.833 180.659L296.316 204.955C295.438 207.133 295.094 209.49 295.312 211.828Z" fill="#FFB6B6"/>
<path d="M281.463 96.1818C281.463 96.1818 292.3 90.4368 297.795 99.0219C303.29 107.607 307.082 200.456 307.082 200.456L291.852 202.084L288.965 136.656L281.463 96.1818Z" fill="#E6E6E6"/>
<path d="M258.972 349.401L267.795 349.4L271.992 315.317L258.97 315.318L258.972 349.401Z" fill="#FFB6B6"/>
<path d="M289.2 349.199C289.475 349.663 289.62 351.158 289.62 351.697C289.62 353.353 288.279 354.696 286.625 354.696H259.302C258.174 354.696 257.259 353.78 257.259 352.65V351.511C257.259 351.511 255.907 348.087 258.69 343.867C258.69 343.867 262.149 347.171 267.317 341.995L268.841 339.23L279.873 347.311L285.988 348.064C287.326 348.229 288.512 348.039 289.2 349.199Z" fill="#2F2E41"/>
<path d="M310.029 347.938L318.577 345.75L314.221 311.688L301.604 314.916L310.029 347.938Z" fill="#FFB6B6"/>
<path d="M339.267 340.25C339.648 340.631 340.158 342.044 340.291 342.566C340.701 344.171 339.733 345.804 338.131 346.214L311.658 352.987C310.564 353.267 309.452 352.606 309.173 351.511L308.891 350.407C308.891 350.407 306.735 347.425 308.388 342.646C308.388 342.646 312.556 344.99 316.285 338.694L317.078 335.638L329.764 340.732L335.875 339.947C337.211 339.775 338.314 339.296 339.267 340.25Z" fill="#2F2E41"/>
<path d="M251.672 88.8557L251.254 85.8154L256.226 73.6541L269.887 72.1339L272.837 89.5444L251.672 88.8557Z" fill="#FFB6B6"/>
<path opacity="0.1" d="M251.672 88.8557L251.254 85.8154L256.226 73.6541L269.887 72.1339L272.837 89.5444L251.672 88.8557Z" fill="black"/>
<path d="M235.734 174.742L229.663 191.464L234.217 200.584L256.985 332.835H272.122L269.128 215.785L304.04 332.835H319.022L306.974 253.789L297.968 180.823L292.506 177.443L266.092 162.581L235.734 174.742Z" fill="#2F2E41"/>
<path d="M274.441 186.144L265.334 187.664L253.19 158.781H280.512L274.441 186.144Z" fill="#E6E6E6"/>
<path d="M292.656 178.543L274.441 186.143L268.369 172.462L265.334 187.663L233.458 177.387L238.011 158.781L233.458 97.976L249.532 87.2439L251.672 85.8151L271.405 87.3352L273.136 88.2777L285.066 94.9358L288.102 145.1L292.656 178.543Z" fill="#2F2E41"/>
<path d="M273.136 88.2777L264.575 124.578L249.532 87.2439L251.672 85.8151L271.405 87.3352L273.136 88.2777Z" fill="#E6E6E6"/>
<path d="M258.503 85.8151L255.467 91.051L258.503 92.7964L256.985 124.673L263.057 132.939L269.128 120.722L264.575 92.7964L266.092 85.8151H258.503Z" fill="#2F2E41"/>
<path d="M263.057 82.7757C271.021 82.7757 277.477 76.31 277.477 68.3341C277.477 60.3583 271.021 53.8926 263.057 53.8926C255.093 53.8926 248.637 60.3583 248.637 68.3341C248.637 76.31 255.093 82.7757 263.057 82.7757Z" fill="#FFB6B6"/>
<path d="M253.841 69.6009L256.957 70.9627L258.317 62.7918C258.317 62.7918 263.756 60.0682 267.835 61.43C271.915 62.7918 278.713 61.43 278.713 61.43C278.713 61.43 278.714 47.8119 269.195 47.8119C259.677 47.8119 250.158 49.1737 250.158 53.2591C250.158 57.3446 246.079 61.43 246.079 61.43C246.079 61.43 240.639 69.6009 246.079 75.0482C251.518 80.4954 254.237 80.4954 254.237 80.4954L253.841 69.6009Z" fill="#2F2E41"/>
<path d="M225.861 211.401C225.703 217.274 228.6 222.115 232.332 222.216C236.064 222.316 239.217 217.637 239.374 211.762C239.469 209.416 239.002 207.082 238.011 204.954L238.367 180.063L226.7 180.144L227.588 204.674C226.484 206.746 225.892 209.053 225.861 211.401Z" fill="#FFB6B6"/>
<path d="M240.296 94.9072C240.296 94.9072 230.429 91.867 225.875 100.988C221.322 110.108 227.393 202.836 227.393 202.836H242.71L238.645 137.471L240.296 94.9072Z" fill="#E6E6E6"/>
<path d="M618.779 267.658L581.985 256.378C581.172 256.129 580.318 256.038 579.47 256.11L392.995 272.004C390.336 272.23 389.668 275.822 392.067 276.992L398.04 279.906H397.881V419.414H403.509V282.575L422.229 291.708C423.662 292.407 425.26 292.692 426.845 292.532L428.837 292.33V419.414H434.465V291.761L578.695 277.171V419.414H584.323V276.602L608.244 274.182V419.414H613.872V273.612L618.237 273.171C621.3 272.861 621.723 268.561 618.779 267.658Z" fill="#3F3D56"/>
<path d="M447.13 271.451C450.647 271.451 502.711 265.11 502.711 265.11L510.45 275.679L456.276 286.248L447.13 271.451Z" fill="white"/>
<path d="M504.27 413.997L495.224 413.981L490.981 379.032L504.331 379.056L504.27 413.997Z" fill="#A0616A"/>
<path d="M473.28 413.738C472.997 414.212 472.846 415.745 472.845 416.298C472.842 417.996 474.214 419.375 475.91 419.378L503.922 419.426C505.079 419.428 506.018 418.49 506.02 417.332L506.022 416.164C506.022 416.164 507.414 412.656 504.568 408.324C504.568 408.324 501.016 411.706 495.727 406.391L494.169 403.553L482.845 411.818L476.575 412.58C475.203 412.746 473.987 412.549 473.28 413.738Z" fill="#2F2E41"/>
<path d="M552.817 397.746L545.68 403.136L521.52 378.134L532.053 370.178L552.817 397.746Z" fill="#A0616A"/>
<path d="M528.245 416.055C528.305 416.597 529.099 417.896 529.427 418.331C530.436 419.671 532.339 419.938 533.676 418.927L555.776 402.231C556.689 401.541 556.871 400.241 556.182 399.327L555.488 398.406C555.488 398.406 554.495 394.811 549.673 393.098C549.673 393.098 548.889 397.884 541.556 396.856L538.638 395.55L534.638 408.827L530.152 413.174C529.17 414.125 528.094 414.695 528.245 416.055Z" fill="#2F2E41"/>
<path d="M533.913 217.126C533.913 225.48 527.151 232.252 518.809 232.252C510.468 232.252 503.706 225.48 503.706 217.126C503.706 208.773 510.468 202 518.809 202C527.151 202 533.913 208.773 533.913 217.126Z" fill="#A0616A"/>
<path d="M532.49 304.335C532.49 304.335 476.881 301.183 473.733 307.488C470.586 313.792 490.75 400.391 490.75 400.391L508.74 396.615L499.964 335.858C499.964 335.858 546.368 348.165 552.663 333.455C558.958 318.744 557.146 313.267 557.146 313.267L532.49 304.335Z" fill="#2F2E41"/>
<path d="M546.737 293.753C546.737 293.753 492.277 305.445 490.907 312.358C489.536 319.272 531.857 397.444 531.857 397.444L548.209 389.036L523.697 332.769C523.697 332.769 571.698 332.345 573.884 316.49C576.069 300.636 572.874 295.834 572.874 295.834L546.737 293.753Z" fill="#2F2E41"/>
<path d="M552.949 234.46H526.785L508.882 263.881C508.882 263.881 504.685 282.894 508.882 284.946C513.079 286.998 513.079 309.064 513.079 309.064L557.146 313.267C557.146 313.267 563.441 247.069 561.343 240.765C559.245 234.46 552.949 234.46 552.949 234.46Z" fill="#DE7673"/>
<path d="M511.505 253.899L508.882 284.946L479.379 272.406L472.337 268.86C470.958 267.059 469.168 265.615 467.118 264.648C462.018 262.159 456.604 262.776 455.023 266.025C453.442 269.274 456.293 273.924 461.391 276.412C463.415 277.434 465.654 277.956 467.921 277.934L488.524 289.653L488.548 289.607L488.639 289.77L520.948 303.285L528.382 262.527L511.505 253.899Z" fill="#A0616A"/>
<path d="M508.358 219.224C508.358 219.224 492.619 221.326 498.915 207.666C498.915 207.666 497.955 200.261 502.632 199.761C507.308 199.26 513.604 190.854 513.604 190.854C513.604 190.854 528.037 183.499 535.509 190.854C542.982 198.209 565.015 241.29 565.015 241.29L550.326 257.052C550.326 257.052 541.495 233.803 531.222 236.496C520.948 239.189 511.505 247.218 511.505 247.218C511.505 247.218 501.079 241.993 505.768 237.439C510.456 232.884 508.358 219.224 508.358 219.224Z" fill="#2F2E41"/>
<path d="M529.342 242.341C529.342 242.341 521.997 232.884 516.751 240.24C511.505 247.595 507.308 257.052 507.308 257.052L528.293 264.407L529.342 242.341Z" fill="#DE7673"/>
<path d="M609.016 417.323L584.636 339.719L584.64 339.719H584.696L584.598 339.592L584.595 339.589L582.859 334.061L582.86 334.061C585.505 331.778 587.306 328.516 587.665 324.76L576.521 263.377C577.288 255.316 571.117 248.27 563.034 247.981L537.888 247.918C530.74 247.664 524.549 252.836 523.508 259.924L522.952 263.687L515.248 316.171C514.967 318.059 515.079 319.92 515.522 321.66L509.978 322.386L508.297 322.611L501.648 323.478L501.627 323.485L500.797 323.591H499.896V346.137H499.953V418.202C499.953 418.667 500.332 419.048 500.797 419.048C501.268 419.048 501.648 418.667 501.648 418.202V346.137H511.512L521.355 418.118C521.418 418.541 521.777 418.851 522.199 418.851C522.234 418.851 522.276 418.851 522.312 418.844C522.776 418.78 523.1 418.35 523.036 417.885L513.229 346.137H560.557C565.256 346.137 569.611 344.644 573.157 342.087L591.922 417.986C592.019 418.37 592.364 418.625 592.742 418.625C592.811 418.625 592.882 418.617 592.952 418.599C593.405 418.483 593.68 418.021 593.564 417.567L574.618 340.934C574.87 340.724 575.122 340.499 575.36 340.268L582.893 339.824L607.4 417.832C607.513 418.195 607.848 418.427 608.208 418.427C608.292 418.427 608.378 418.414 608.462 418.387C608.909 418.246 609.157 417.77 609.016 417.323ZM581.249 335.266C581.312 335.23 581.368 335.188 581.424 335.153L581.606 335.729L581.249 335.266Z" fill="#E6E6E6"/>
<path d="M130.634 285.781L147.042 275.331L153.713 279.361L130.634 305.919V285.781Z" fill="#FFB6B6"/>
<path d="M108.197 245.334C108.197 245.334 97.2984 247.902 102.427 262.669C107.556 277.435 124.224 308.252 129.352 306.326C134.481 304.4 135.122 285.139 135.122 285.139C135.122 285.139 134.481 285.781 131.917 283.213C129.352 280.645 129.352 281.818 129.352 278.985C129.352 276.151 127.255 274.051 127.255 274.051L124.865 269.089C124.865 269.089 124.865 245.976 115.249 244.692C105.632 243.408 108.197 245.334 108.197 245.334Z" fill="#E6E6E6"/>
<path d="M159.114 278.671C163.37 274.408 164.689 268.819 162.061 266.186C159.432 263.554 153.851 264.875 149.595 269.137C145.338 273.399 144.019 278.989 146.648 281.622C149.277 284.254 154.858 282.933 159.114 278.671Z" fill="#FFB6B6"/>
<path d="M65.7477 330.402L76.9438 348.961L142.19 345.094L124.817 322.669L65.7477 330.402Z" fill="#E6E6E6"/>
<path d="M85.2434 417.202C84.8634 417.202 84.5323 416.921 84.4794 416.533L64.9827 273.933C64.9249 273.509 65.2205 273.119 65.6429 273.062C66.0652 273 66.4546 273.3 66.5127 273.723L86.0093 416.323C86.0672 416.747 85.7716 417.137 85.3492 417.194C85.3135 417.199 85.2783 417.202 85.2434 417.202Z" fill="#E6E6E6"/>
<path d="M65.7477 417.383C65.3213 417.383 64.9756 417.037 64.9756 416.61V273.855C64.9756 273.428 65.3213 273.082 65.7477 273.082C66.1741 273.082 66.5199 273.428 66.5199 273.855V416.61C66.5199 417.037 66.1741 417.383 65.7477 417.383Z" fill="#E6E6E6"/>
<path d="M163.617 416.815C163.288 416.815 162.984 416.604 162.88 416.274L116.745 269.42C116.617 269.013 116.843 268.579 117.25 268.45C117.656 268.323 118.09 268.549 118.218 268.956L164.353 415.809C164.481 416.217 164.255 416.651 163.849 416.779C163.771 416.804 163.693 416.815 163.617 416.815Z" fill="#E6E6E6"/>
<path d="M149.525 416.996C149.18 416.996 148.866 416.763 148.777 416.413L116.733 286.805C116.628 286.391 116.878 285.97 117.291 285.865C117.705 285.76 118.125 286.01 118.23 286.423L150.274 416.032C150.379 416.446 150.129 416.867 149.716 416.972C149.652 416.988 149.588 416.996 149.525 416.996Z" fill="#E6E6E6"/>
<path d="M65.7477 276.13L119.219 275.306L129.063 331.562H66.5199L65.7477 276.13Z" fill="#E6E6E6"/>
<path d="M147.919 358.849L134.444 382.609L150.09 386.059L156.613 369.16L147.919 358.849Z" fill="#FFB6B6"/>
<path d="M139.284 378.123C139.284 378.123 138.76 374.249 135.682 375.478C132.603 376.708 123.719 381.277 123.719 381.277C123.719 381.277 146.892 418.986 151.289 417.229C155.687 415.472 150.423 404.813 150.423 404.813L151.585 385.972L139.284 378.123Z" fill="#2F2E41"/>
<path d="M88.3234 312.746C88.3234 312.746 83.5153 334.895 98.26 342.599C113.005 350.304 163.329 331.364 163.329 331.364L140.25 365.995L156.277 372.453C156.277 372.453 192.819 324.302 190.254 316.598C187.69 308.894 170.381 308.252 170.381 308.252L131.275 310.178L121.018 306.968L88.3234 312.746Z" fill="#2F2E41"/>
<path d="M127.983 369.394L106.798 386.615L120.119 395.53L132.335 382.166L127.983 369.394Z" fill="#FFB6B6"/>
<path d="M112.937 384.2C112.937 384.2 113.857 380.4 110.542 380.424C107.228 380.447 97.2925 381.466 97.2925 381.466C97.2925 381.466 105.176 425.033 109.91 425C114.645 424.966 113.614 413.119 113.614 413.119L121.542 395.993L112.937 384.2Z" fill="#2F2E41"/>
<path d="M89.2247 304.734C89.2247 304.734 76.6982 323.613 87.6328 336.162C98.5674 348.711 152.324 349.409 152.324 349.409L118.244 373.256L130.825 385.111C130.825 385.111 182.357 353.578 182.768 345.467C183.179 337.357 167.29 330.451 167.29 330.451L130.165 317.994L121.778 311.266L89.2247 304.734Z" fill="#2F2E41"/>
<path d="M121.404 261.006C121.404 261.006 109.224 256.512 103.454 256.512C102.903 256.512 102.358 256.576 101.813 256.692C98.1205 257.475 94.7228 260.653 93.0945 262.386C92.4598 263.067 92.0944 263.523 92.0944 263.523C92.0944 263.523 92.1329 263.08 92.2098 262.303C92.588 258.22 93.9856 244.821 96.4922 236.244C97.3897 233.181 98.4218 230.735 99.6078 229.547C102.371 226.774 103.647 223.448 104.236 220.97C104.736 218.845 104.736 217.349 104.736 217.349L100.063 215.333L99.1975 209.671C99.0436 210.338 98.3321 211.642 95.9409 214.139C95.7357 214.351 95.5113 214.531 95.2741 214.685C91.8251 216.855 84.7926 213.08 81.0038 210.704C82.5808 205.215 85.44 200.194 90.6327 199.373C102.813 197.447 102.813 190.384 110.506 198.089C111.141 198.724 111.782 199.334 112.423 199.925C114.885 204.637 115.782 210.955 116.103 215.346C116.333 218.421 116.276 220.559 116.276 220.559C116.276 220.559 119.481 239.82 124.61 243.672C129.738 247.524 121.404 261.006 121.404 261.006Z" fill="#2F2E41"/>
<path d="M97.6846 230.189L89.0225 242.914L108.583 248.166V230.189H97.6846Z" fill="#FFB6B6"/>
<path opacity="0.1" d="M97.6846 230.189L89.0225 242.914L108.583 248.166V230.189H97.6846Z" fill="black"/>
<path d="M109.799 242.445L91.2082 234.741C91.2082 234.741 66.2063 245.655 68.1295 266.842C70.0527 288.028 88.0028 324.623 88.0028 324.623L123.903 309.215L120.057 268.126L109.799 242.445Z" fill="#E6E6E6"/>
<path d="M101.828 235.871C110.887 235.871 118.23 228.517 118.23 219.445C118.23 210.373 110.887 203.018 101.828 203.018C92.7697 203.018 85.4263 210.373 85.4263 219.445C85.4263 228.517 92.7697 235.871 101.828 235.871Z" fill="#FFB6B6"/>
<path d="M123.969 213.497C120.763 216.707 118.199 219.917 118.199 219.917L116.917 214.781C116.917 214.781 116.622 214.999 116.103 215.346C114.07 216.733 108.615 220.219 104.236 220.97C102.287 221.304 100.557 221.092 99.4283 219.917C97.0371 217.42 96.3255 216.116 96.1716 215.449L95.3062 221.111L90.6327 223.127C90.6327 223.127 90.6327 230.176 95.7613 235.325C96.0114 235.576 96.255 235.884 96.4922 236.244C98.9411 239.942 100.698 248.994 101.813 256.692C102.8 263.536 103.275 269.301 103.275 269.301C103.275 269.301 98.4218 263.215 93.0945 262.386C92.7996 262.341 92.5047 262.309 92.2098 262.303C92.1136 262.29 92.0111 262.29 91.9149 262.29C86.1452 262.29 73.9648 266.784 73.9648 266.784C73.9648 266.784 65.6308 253.302 70.7594 249.45C75.888 245.598 79.0934 226.337 79.0934 226.337C79.0934 226.337 78.8818 218.094 81.0038 210.704C82.5808 205.215 85.44 200.194 90.6327 199.373C102.813 197.447 102.813 190.384 110.506 198.089C111.141 198.724 111.782 199.334 112.423 199.925C119.59 206.525 126.911 210.55 123.969 213.497Z" fill="#2F2E41"/>
<path d="M52.0312 299.679H45.9398V420.16H52.0312V299.679Z" fill="#3F3D56"/>
<path d="M199.748 299.679H193.657V420.16H199.748V299.679Z" fill="#3F3D56"/>
<path d="M160.915 248.588H120.56V289.003H160.915V248.588Z" fill="#DE7673"/>
<path d="M97.2984 291.56L113.706 281.11L120.377 285.139L97.2984 311.698V291.56Z" fill="#FFB6B6"/>
<path d="M74.8608 251.113C74.8608 251.113 63.9625 253.681 69.0911 268.447C74.2197 283.213 90.8877 314.03 96.0163 312.104C101.145 310.178 101.786 290.917 101.786 290.917C101.786 290.917 101.145 291.559 98.5806 288.991C96.0163 286.423 96.0163 287.596 96.0163 284.763C96.0163 281.929 93.9189 279.829 93.9189 279.829L91.5287 274.867C91.5287 274.867 91.5287 251.755 81.9126 250.471C72.2965 249.187 74.8608 251.113 74.8608 251.113Z" fill="#E6E6E6"/>
<path d="M125.778 284.449C130.034 280.187 131.354 274.597 128.725 271.965C126.096 269.332 120.515 270.653 116.259 274.915C112.002 279.178 110.683 284.767 113.312 287.4C115.941 290.032 121.522 288.711 125.778 284.449Z" fill="#FFB6B6"/>
<path d="M211.931 295.104H27.6656V308.83H211.931V295.104Z" fill="#3F3D56"/>
<path d="M399.143 185.297H371.929C369.772 185.297 368.023 187.049 368.023 189.209V200.45C368.023 202.61 369.772 204.362 371.929 204.362H399.143C401.3 204.362 403.049 202.61 403.049 200.45V189.209C403.049 187.049 401.3 185.297 399.143 185.297Z" fill="#3F3D56"/>
<path d="M456.25 196.537H429.036C426.879 196.537 425.13 198.289 425.13 200.449V200.449C425.13 202.61 426.879 204.361 429.036 204.361H456.25C458.407 204.361 460.156 202.61 460.156 200.449C460.156 198.289 458.407 196.537 456.25 196.537Z" fill="#DE7673"/>
</svg>
